<svg class="injected-svg" id="svg-ba4b22d7-9a4d-4cb7-aef7-08361d316dfd" height="100%" width="100%" viewBox="0 0 540 508" xmlns="http://www.w3.org/2000/svg"><g xmlns="http://www.w3.org/2000/svg" fill="#6d50bf" id="shape-svg"><title>forma_1</title><g id="Слой_2" data-name="Слой 2"><g id="Слой_1-2" data-name="Слой 1"><path transform="translate(83, 70) scale(1.3,1.3)" d="M109.09,267.71a41.22,41.22,0,0,1-16.5-3.36c-21.92-9.45-28.8-34.59-35.46-58.89-2.4-8.77-4.67-17-7.59-24.41s-7-15.07-11.38-23.16C26.33,135.82,14.09,113,23.24,91s34-29.29,58.05-36.22C89.87,52.3,98,50,105.13,47a238.53,238.53,0,0,0,22.16-11.16c22.09-12.06,44.92-24.53,67-15s28.8,34.59,35.46,58.89c2.41,8.76,4.67,17,7.6,24.41s7,15.07,11.37,23.16c11.83,22.07,24.07,44.9,14.92,66.9h0c-9.2,22.13-34,29.29-58.05,36.22-8.57,2.47-16.67,4.81-23.84,7.77a237.5,237.5,0,0,0-22.16,11.17C143,258.41,125.91,267.71,109.09,267.71ZM177.8,19.27c-16.42,0-33.24,9.19-49.65,18.14a238.68,238.68,0,0,1-22.34,11.25c-7.25,3-15.4,5.35-24,7.83-23.61,6.81-48,13.85-56.89,35.19s3.21,43.66,14.84,65.37c4.36,8.13,8.48,15.82,11.46,23.34s5.24,15.78,7.66,24.59c6.54,23.9,13.32,48.61,34.44,57.72s43.7-3.09,65.41-14.94a239.91,239.91,0,0,1,22.34-11.25c7.25-3,15.4-5.35,24-7.83,23.6-6.81,48-13.85,56.89-35.19h0c8.81-21.22-3.21-43.66-14.85-65.36-4.36-8.14-8.48-15.83-11.46-23.35S230.42,89,228,80.19c-6.54-23.9-13.31-48.61-34.44-57.72A39.29,39.29,0,0,0,177.8,19.27Zm85,174.56h0Z"></path><path transform="translate(83, 70) scale(1.3,1.3)" d="M109.1,268.32a41.72,41.72,0,0,1-16.75-3.42c-22.18-9.56-29.11-34.84-35.81-59.29-2.39-8.74-4.65-17-7.57-24.34s-7-15-11.34-23.09C25.73,136,13.43,113,22.69,90.76S57,61.16,81.12,54.19c8.56-2.47,16.65-4.8,23.78-7.75A236,236,0,0,0,127,35.31c22.21-12.13,45.18-24.67,67.51-15s29.11,34.84,35.81,59.28c2.39,8.75,4.66,17,7.57,24.35s7,15,11.35,23.1c11.89,22.19,24.2,45.14,14.94,67.41h0c-9.32,22.4-34.29,29.6-58.44,36.57-8.56,2.47-16.64,4.8-23.77,7.75a237.37,237.37,0,0,0-22.11,11.13C143.17,259,126.05,268.32,109.1,268.32ZM177.8,19.88c-16.28,0-33,9.14-49.36,18.06A238.54,238.54,0,0,1,106,49.21c-7.28,3-15.44,5.37-24.08,7.86-23.47,6.77-47.74,13.77-56.5,34.84s3.24,43.27,14.81,64.85c4.37,8.15,8.5,15.85,11.49,23.4S57,196,59.44,204.82c6.51,23.76,13.24,48.34,34.1,57.33s43.3-3.14,64.88-14.92A238.54,238.54,0,0,1,180.82,236c7.29-3,15.45-5.37,24.09-7.87,23.47-6.76,47.74-13.76,56.5-34.83h0c8.71-20.95-3.25-43.27-14.82-64.85-4.37-8.15-8.5-15.85-11.49-23.4s-5.26-15.84-7.68-24.66C220.91,56.59,214.18,32,193.32,23A38.7,38.7,0,0,0,177.8,19.88Zm85,174h0Z"></path><path transform="translate(83, 70) scale(1.3,1.3)" d="M109.1,268.32a41.72,41.72,0,0,1-16.75-3.42c-22.18-9.56-29.11-34.84-35.81-59.29-2.39-8.74-4.65-17-7.57-24.34s-7-15-11.34-23.09C25.73,136,13.43,113,22.69,90.76S57,61.16,81.12,54.19c8.56-2.47,16.65-4.8,23.78-7.75A236,236,0,0,0,127,35.31c22.21-12.13,45.18-24.67,67.51-15s29.11,34.84,35.81,59.28c2.39,8.75,4.66,17,7.57,24.35s7,15,11.35,23.1c11.89,22.19,24.2,45.14,14.94,67.41h0c-9.32,22.4-34.29,29.6-58.44,36.57-8.56,2.47-16.64,4.8-23.77,7.75a237.37,237.37,0,0,0-22.11,11.13C143.17,259,126.05,268.32,109.1,268.32ZM177.8,19.88c-16.28,0-33,9.14-49.36,18.06A238.54,238.54,0,0,1,106,49.21c-7.28,3-15.44,5.37-24.08,7.86-23.47,6.77-47.74,13.77-56.5,34.84s3.24,43.27,14.81,64.85c4.37,8.15,8.5,15.85,11.49,23.4S57,196,59.44,204.82c6.51,23.76,13.24,48.34,34.1,57.33s43.3-3.14,64.88-14.92A238.54,238.54,0,0,1,180.82,236c7.29-3,15.45-5.37,24.09-7.87,23.47-6.76,47.74-13.76,56.5-34.83h0c8.71-20.95-3.25-43.27-14.82-64.85-4.37-8.15-8.5-15.85-11.49-23.4s-5.26-15.84-7.68-24.66C220.91,56.59,214.18,32,193.32,23A38.7,38.7,0,0,0,177.8,19.88Zm85,174h0Z"></path><path transform="translate(83, 70) scale(1.3,1.3)" d="M106,279.51a45.37,45.37,0,0,1-18.2-3.72c-24.12-10.4-31.67-37.92-39-64.53-2.61-9.54-5.08-18.55-8.26-26.56s-7.65-16.38-12.37-25.18c-13-24.17-26.35-49.16-16.28-73.37C22.07,61.78,49.26,53.94,75.55,46.36c9.33-2.69,18.15-5.23,25.93-8.45s15.68-7.54,24.11-12.15c24.18-13.2,49.19-26.85,73.47-16.38C223.18,19.78,230.72,47.3,238,73.92c2.61,9.53,5.08,18.54,8.26,26.55s7.65,16.38,12.37,25.19c13,24.16,26.35,49.15,16.29,73.36h0c-10.13,24.37-37.32,32.21-63.62,39.79-9.33,2.69-18.15,5.23-25.93,8.45s-15.68,7.54-24.11,12.15C143.1,269.33,124.46,279.51,106,279.51ZM180.9,8.69c-17.78,0-36.05,10-53.87,19.71-8.5,4.64-16.53,9-24.4,12.28S85.8,46.53,76.38,49.24c-25.61,7.39-52.1,15-61.67,38.06s3.53,47.25,16.15,70.8c4.76,8.88,9.26,17.27,12.52,25.5s5.73,17.25,8.36,26.86C58.85,236.4,66.2,263.21,89,273s47.29-3.41,70.84-16.27c8.5-4.64,16.53-9,24.4-12.28s16.83-5.85,26.24-8.56c25.62-7.39,52.1-15,61.68-38.06h0c9.52-22.9-3.54-47.25-16.16-70.8-4.76-8.88-9.26-17.27-12.52-25.5s-5.73-17.24-8.36-26.86C228,48.78,220.67,22,197.87,12.13A42.5,42.5,0,0,0,180.9,8.69Zm92.64,189.76h0Z"></path><path transform="translate(83, 70) scale(1.3,1.3)" d="M106,279.51a45.37,45.37,0,0,1-18.2-3.72c-24.12-10.4-31.67-37.92-39-64.53-2.61-9.54-5.08-18.55-8.26-26.56s-7.65-16.38-12.37-25.18c-13-24.17-26.35-49.16-16.28-73.37C22.07,61.78,49.26,53.94,75.55,46.36c9.33-2.69,18.15-5.23,25.93-8.45s15.68-7.54,24.11-12.15c24.18-13.2,49.19-26.85,73.47-16.38C223.18,19.78,230.72,47.3,238,73.92c2.61,9.53,5.08,18.54,8.26,26.55s7.65,16.38,12.37,25.19c13,24.16,26.35,49.15,16.29,73.36h0c-10.13,24.37-37.32,32.21-63.62,39.79-9.33,2.69-18.15,5.23-25.93,8.45s-15.68,7.54-24.11,12.15C143.1,269.33,124.46,279.51,106,279.51ZM180.9,8.69c-17.78,0-36.05,10-53.87,19.71-8.5,4.64-16.53,9-24.4,12.28S85.8,46.53,76.38,49.24c-25.61,7.39-52.1,15-61.67,38.06s3.53,47.25,16.15,70.8c4.76,8.88,9.26,17.27,12.52,25.5s5.73,17.25,8.36,26.86C58.85,236.4,66.2,263.21,89,273s47.29-3.41,70.84-16.27c8.5-4.64,16.53-9,24.4-12.28s16.83-5.85,26.24-8.56c25.62-7.39,52.1-15,61.68-38.06h0c9.52-22.9-3.54-47.25-16.16-70.8-4.76-8.88-9.26-17.27-12.52-25.5s-5.73-17.24-8.36-26.86C228,48.78,220.67,22,197.87,12.13A42.5,42.5,0,0,0,180.9,8.69Zm92.64,189.76h0Z"></path><path transform="translate(83, 70) scale(1.3,1.3)" d="M176,273.3c-18.13,0-36-10.85-53.47-21.42-7.78-4.71-15.13-9.17-22.32-12.53s-15.56-6.19-24.33-9.14c-24.46-8.22-49.75-16.71-58.42-40s4.84-46.29,17.89-68.57c4.73-8.09,9.2-15.73,12.48-23.16S53.65,82.81,56.43,74c7.87-24.87,16-50.58,39.28-59.39s46.38,5.14,68.67,18.65c7.78,4.71,15.14,9.17,22.32,12.53S202.26,52,211,55c24.46,8.22,49.75,16.71,58.42,40h0c8.66,23.25-4.84,46.29-17.88,68.57-4.74,8.09-9.21,15.73-12.49,23.16s-5.86,15.66-8.65,24.44c-7.87,24.87-16,50.58-39.27,59.39A42.9,42.9,0,0,1,176,273.3ZM110.85,14.9a39.42,39.42,0,0,0-14.08,2.55C74.87,25.74,67,50.75,59.29,74.93c-2.81,8.87-5.46,17.25-8.77,24.75S42.67,115,37.88,123.15c-12.69,21.67-25.82,44.09-17.66,66S53,219.37,76.78,227.37c8.86,3,17.23,5.79,24.65,9.26s14.75,7.93,22.61,12.69c21.68,13.13,44.09,26.72,66.05,18.4s29.83-33.3,37.48-57.48c2.81-8.87,5.46-17.24,8.77-24.75S244.2,170.19,249,162c12.69-21.68,25.82-44.1,17.66-66h0c-8.17-22-32.77-30.22-56.56-38.22-8.86-3-17.23-5.79-24.65-9.26s-14.75-7.93-22.61-12.69C145.76,25.52,128.25,14.9,110.85,14.9Z"></path><path transform="translate(83, 70) scale(1.3,1.3)" d="M176,273.3c-18.13,0-36-10.85-53.47-21.42-7.78-4.71-15.13-9.17-22.32-12.53s-15.56-6.19-24.33-9.14c-24.46-8.22-49.75-16.71-58.42-40s4.84-46.29,17.89-68.57c4.73-8.09,9.2-15.73,12.48-23.16S53.65,82.81,56.43,74c7.87-24.87,16-50.58,39.28-59.39s46.38,5.14,68.67,18.65c7.78,4.71,15.14,9.17,22.32,12.53S202.26,52,211,55c24.46,8.22,49.75,16.71,58.42,40h0c8.66,23.25-4.84,46.29-17.88,68.57-4.74,8.09-9.21,15.73-12.49,23.16s-5.86,15.66-8.65,24.44c-7.87,24.87-16,50.58-39.27,59.39A42.9,42.9,0,0,1,176,273.3ZM110.85,14.9a39.42,39.42,0,0,0-14.08,2.55C74.87,25.74,67,50.75,59.29,74.93c-2.81,8.87-5.46,17.25-8.77,24.75S42.67,115,37.88,123.15c-12.69,21.67-25.82,44.09-17.66,66S53,219.37,76.78,227.37c8.86,3,17.23,5.79,24.65,9.26s14.75,7.93,22.61,12.69c21.68,13.13,44.09,26.72,66.05,18.4s29.83-33.3,37.48-57.48c2.81-8.87,5.46-17.24,8.77-24.75S244.2,170.19,249,162c12.69-21.68,25.82-44.1,17.66-66h0c-8.17-22-32.77-30.22-56.56-38.22-8.86-3-17.23-5.79-24.65-9.26s-14.75-7.93-22.61-12.69C145.76,25.52,128.25,14.9,110.85,14.9Z"></path><path transform="translate(83, 70) scale(1.3,1.3)" d="M180.34,211.26H106.52a1,1,0,1,1,0-2h73.82a1,1,0,1,1,0,2Z"></path><path transform="translate(83, 70) scale(1.3,1.3)" d="M180.34,219.36H106.52a1,1,0,1,1,0-2h73.82a1,1,0,1,1,0,2Z"></path><path transform="translate(83, 70) scale(1.3,1.3)" d="M180.34,69.88H106.52a1,1,0,1,1,0-2h73.82a1,1,0,0,1,0,2Z"></path><path transform="translate(83, 70) scale(1.3,1.3)" d="M180.34,78H106.52a1,1,0,0,1,0-2h73.82a1,1,0,0,1,0,2Z"></path><path transform="translate(83, 70) scale(1.3,1.3)" d="M286.91,138.48a6,6,0,1,1-6-6A6,6,0,0,1,286.91,138.48Z"></path><path transform="translate(83, 70) scale(1.3,1.3)" d="M12,146.79a6,6,0,1,1-6-6A6,6,0,0,1,12,146.79Z"></path><path transform="translate(83, 70) scale(1.3,1.3)" d="M140.18,0a3.56,3.56,0,1,1-3.56,3.56A3.56,3.56,0,0,1,140.18,0Z"></path><path transform="translate(83, 70) scale(1.3,1.3)" d="M149.81,278.54a3.4,3.4,0,1,1-3.4,3.4A3.4,3.4,0,0,1,149.81,278.54Z"></path></g></g></g><g xmlns="http://www.w3.org/2000/svg" fill="#000000" id="icon-svg">{}</g><path xmlns="http://www.w3.org/2000/svg" id="SvgjsPath97665" d="M20.70-28.57L14.85-4.50L14.40-4.50L5.85-33.07L1.35-33.07L11.25 0L18 0L23.85-24.07L24.30-24.07L30.15 0L36.90 0L46.80-33.07L42.30-33.07L33.75-4.50L33.30-4.50L27.45-28.57ZM57.91-33.07L53.41-33.07L53.41 0L57.91 0ZM67.81-4.05L67.81-33.07L63.31-33.07L63.31 0L87.61 0L87.61-4.05Z" fill="#343a40" fontsize="45" transform="matrix(1,0,0,1,226.02,310.035)"></path></svg>